# xmcd
#
# Track frame offsets:
#	150
#	16180
#	29827
#	42665
#	58002
#	71467
#	88927
#	101705
#	115520
#	129275
#	140620
#	161402
#	173465
#	186135
#	200790
#	211937
#	229505
#	245757
#	258942
#	269975
#
# Disc length: 3808 seconds
#
# Revision: 0
# Processed by: cddbd v1.4PL0 Copyright (c) Steve Scherf et al.
# Submitted via: OrangeCD 4.1
#
DISCID=260ede14
DTITLE=Tanya Tucker - Collection
DYEAR=1900
DGENRE=
TTITLE0=Dancing The Night Away
TTITLE1=Here's Some Love
TTITLE2=Don't Believe My Heart Can Stand Another You
TTITLE3=Take Me To Heaven
TTITLE4=Dream Lover
TTITLE5=Let's Keep It That Way
TTITLE6=San Antonio Stroll
TTITLE7=Lizzie And The Rain Man
TTITLE8=You've Got Me To Hold On To
TTITLE9=It's A Cowboy Lovin Night
TTITLE10=Taxas When I Die
TTITLE11=Ridin' Rainbows
TTITLE12=Can I See You Tonight
TTITLE13=Short Cuts
TTITLE14=Pecos Promenade
TTITLE15=Love Knows We Tried
TTITLE16=Someday Soon
TTITLE17=Save Me
TTITLE18=When Will I Be Loved
TTITLE19=Pride Of Franklin County
EXTD=
EXTT0=
EXTT1=
EXTT2=
EXTT3=
EXTT4=
EXTT5=
EXTT6=
EXTT7=
EXTT8=
EXTT9=
EXTT10=
EXTT11=
EXTT12=
EXTT13=
EXTT14=
EXTT15=
EXTT16=
EXTT17=
EXTT18=
EXTT19=
PLAYORDER=
